<svg width="64" height="64" viewBox="0 0 64 64" fill="none" xmlns="http://www.w3.org/2000/svg">
  <rect width="64" height="64" rx="16" fill="#08162A"/>
  <circle cx="32" cy="32" r="24" fill="url(#bgGlow)"/>
  <circle cx="32" cy="32" r="23" stroke="url(#sphereEdge)" stroke-opacity="0.45" stroke-width="1.5"/>
  <circle cx="26" cy="24" r="10" fill="url(#volumeGlow)" fill-opacity="0.55"/>
  <path
    d="M13 34.5C19.5 24.8 30.9 19.8 42.8 21.2C49.4 22 55.2 24.9 58 29.4"
    stroke="#8096FF"
    stroke-width="2.4"
    stroke-linecap="round"
    opacity="0.9"
  />
  <path
    d="M9 39.5C17.3 27.4 32.6 21.3 47.5 23.9C54.2 25.1 58.8 27.7 61 31"
    stroke="#FFD76E"
    stroke-width="2.2"
    stroke-linecap="round"
    stroke-dasharray="2.4 2.1"
    opacity="0.95"
  />
  <circle cx="49.5" cy="28.5" r="4.6" fill="#FFD166"/>
  <circle cx="49.5" cy="28.5" r="7.2" fill="#FFB84D" fill-opacity="0.18"/>
  <circle cx="20.5" cy="43.5" r="1.6" fill="#F2F6FF" fill-opacity="0.92"/>
  <circle cx="24.5" cy="37.5" r="1.1" fill="#F2F6FF" fill-opacity="0.8"/>
  <circle cx="37.5" cy="17.5" r="1.2" fill="#F2F6FF" fill-opacity="0.82"/>
  <circle cx="43.5" cy="19.5" r="0.95" fill="#F2F6FF" fill-opacity="0.72"/>
  <defs>
    <radialGradient id="bgGlow" cx="0" cy="0" r="1" gradientUnits="userSpaceOnUse" gradientTransform="translate(32 34) rotate(90) scale(24)">
      <stop stop-color="#163355"/>
      <stop offset="1" stop-color="#0A1B31"/>
    </radialGradient>
    <radialGradient id="volumeGlow" cx="0" cy="0" r="1" gradientUnits="userSpaceOnUse" gradientTransform="translate(26 24) rotate(90) scale(10)">
      <stop stop-color="#8EC8FF" stop-opacity="0.75"/>
      <stop offset="1" stop-color="#8EC8FF" stop-opacity="0"/>
    </radialGradient>
    <linearGradient id="sphereEdge" x1="13" y1="16" x2="52" y2="49" gradientUnits="userSpaceOnUse">
      <stop stop-color="#A2D8FF"/>
      <stop offset="1" stop-color="#2A4E78"/>
    </linearGradient>
  </defs>
</svg>
